:version 1.10
:name ASF
:units
  mass 1
  length 1
  angle deg
:documentation
  ASF file generated by Kaydara
:root
  axis xyz
  order  tx ty tz rx ry rz
  position 0 0 0
  orientation 0 0 0
:bonedata
  begin
    id 1
    name SpineDummy
    direction 0.999998 -0.00179978 1.38929e-006
    length 3.60008
    axis 0 0 0 xyz
  end
  begin
    id 2
    name Spine
    direction 0.964365 0.262802 0.0305839
    length 8.13928
    axis 1.33928 -1.75354 15.2838 xyz
    dof rx ry rz
  end
  begin
    id 3
    name Spine1
    direction 0.811168 0.572065 0.12144
    length 7.14954
    axis 2.2224 -6.9761 35.2157 xyz
    dof rx ry rz
  end
  begin
    id 4
    name Neck
    direction 0 0 0
    length 0
    axis 2.2224 -6.9761 35.2157 xyz
    dof rx ry rz
  end
  begin
    id 5
    name HeadDummy
    direction 0.810939 0.572387 0.121455
    length 3.55534
    axis 2.2224 -6.9761 35.2157 xyz
  end
  begin
    id 6
    name Head
    direction 0.998226 -0.000232542 0.0595419
    length 7.35666
    axis -3.03688 -3.41352 -0.0133467 xyz
    dof rx ry rz
  end
  begin
    id 7
    name R_ClavicleDummy
    direction 0.531669 -0.194489 -0.824319
    length 2.49392
    axis 2.2224 -6.9761 35.2157 xyz
  end
  begin
    id 8
    name R_Clavicle
    direction -0.155119 0.0480802 -0.986725
    length 4.485
    axis -54.2764 80.6538 162.779 xyz
    dof rx ry rz
  end
  begin
    id 9
    name R_UpperArm
    direction -0.955567 0.200068 -0.216484
    length 10.1122
    axis -72.9943 12.5026 168.175 xyz
    dof rx ry rz
  end
  begin
    id 10
    name R_Forearm
    direction -0.61433 0.385743 0.688332
    length 9.39148
    axis -117.015 -43.4982 147.875 xyz
    dof rx ry rz
  end
  begin
    id 11
    name R_Hand
    direction -0.699429 0.0170333 0.714499
    length 3.66324
    axis -45.0303 -36.7097 175.478 xyz
    dof rx ry rz
  end
  begin
    id 12
    name L_ClavicleDummy
    direction 0.40287 -0.36502 0.839319
    length 2.49392
    axis 2.2224 -6.9761 35.2157 xyz
  end
  begin
    id 13
    name L_Clavicle
    direction -0.231271 -0.0726419 0.970174
    length 4.485
    axis 18.4357 -75.9711 -162.563 xyz
    dof rx ry rz
  end
  begin
    id 14
    name L_UpperArm
    direction -0.917494 0.144359 0.370629
    length 10.1122
    axis 56.0417 -21.7544 171.058 xyz
    dof rx ry rz
  end
  begin
    id 15
    name L_Forearm
    direction -0.496786 0.615074 -0.612281
    length 9.39148
    axis 89.8094 37.7546 128.927 xyz
    dof rx ry rz
  end
  begin
    id 16
    name L_Hand
    direction -0.409932 0.64962 -0.640274
    length 3.66324
    axis -0.424369 32.133 128.52 xyz
    dof rx ry rz
  end
  begin
    id 17
    name L_ThighDummy
    direction -1.84081e-006 1.87549e-006 1
    length 3.13049
    axis 0 0 0 xyz
  end
  begin
    id 18
    name L_Thigh
    direction -0.947739 0.307978 0.083308
    length 17.9961
    axis 173.219 -4.77873 161.998 xyz
    dof rx ry rz
  end
  begin
    id 19
    name L_Calf
    direction -0.728814 -0.684427 0.0197583
    length 13.3367
    axis 167.331 -1.13214 -136.799 xyz
    dof rx ry rz
  end
  begin
    id 20
    name L_Foot
    direction -0.9028 0.418719 0.0981191
    length 5.8674
    axis 163.436 11.5135 -155.37 xyz
    dof rx ry rz
  end
  begin
    id 21
    name L_Toe0
    direction -0.35341 0.886259 0.299411
    length 4.75286
    axis 169.316 -17.4222 111.74 xyz
    dof rx ry rz
  end
  begin
    id 22
    name R_ThighDummy
    direction 9.32778e-007 -8.82053e-007 -1
    length 3.13049
    axis 0 0 0 xyz
  end
  begin
    id 23
    name R_Thigh
    direction -0.925064 0.37528 -0.0585023
    length 17.9961
    axis -178.698 3.35385 157.919 xyz
    dof rx ry rz
  end
  begin
    id 24
    name R_Calf
    direction -0.68969 -0.718776 -0.0876886
    length 13.3367
    axis -160.504 5.03065 -133.817 xyz
    dof rx ry rz
  end
  begin
    id 25
    name R_Foot
    direction -0.857405 0.418858 -0.299022
    length 5.8674
    axis -161.328 4.38911 -154.413 xyz
    dof rx ry rz
  end
  begin
    id 26
    name R_Toe0
    direction -0.100745 0.952789 -0.286433
    length 4.75286
    axis 171.683 16.6445 96.0359 xyz
    dof rx ry rz
  end
:hierarchy
  begin
    root SpineDummy L_ThighDummy R_ThighDummy
    SpineDummy Spine
    Spine Spine1
    Spine1 Neck
    Neck HeadDummy R_ClavicleDummy L_ClavicleDummy
    HeadDummy Head
    R_ClavicleDummy R_Clavicle
    R_Clavicle R_UpperArm
    R_UpperArm R_Forearm
    R_Forearm R_Hand
    L_ClavicleDummy L_Clavicle
    L_Clavicle L_UpperArm
    L_UpperArm L_Forearm
    L_Forearm L_Hand
    L_ThighDummy L_Thigh
    L_Thigh L_Calf
    L_Calf L_Foot
    L_Foot L_Toe0
    R_ThighDummy R_Thigh
    R_Thigh R_Calf
    R_Calf R_Foot
    R_Foot R_Toe0
  end

:SAMPLES-PER-SECOND 30
:FULLY-SPECIFIED
:DEGREES
387
root  -9.19049 39.6974 -15.0272 120.026 4.4705 -87.3734
Spine  -5.00938 22.7398 -9.5593
Spine1  -5.91306 1.3823 -37.2907
Neck  3.97569e-016 0 -2.38542e-015
Head  -14.4273 -16.4071 52.5429
R_Clavicle  2.05019 27.8764 5.99832
R_UpperArm  82.4785 55.9538 39.0864
R_Forearm  44.6369 12.3695 -10.5184
R_Hand  -1.12108 13.3573 -20.1571
L_Clavicle  -8.39689 -16.7663 30.8975
L_UpperArm  -93.3858 -70.137 62.5853
L_Forearm  33.6511 5.67942 7.29136
L_Hand  5.01026 -16.6038 -47.7102
L_Thigh  -8.12244 2.86689 -42.8773
L_Calf  -19.0437 2.88044 -21.9845
L_Foot  5.34535 9.74752 10.0688
L_Toe0  0.505294 0.0372501 -6.13591
R_Thigh  -26.3946 -19.0079 57.3062
R_Calf  10.4372 2.11973 6.53541
R_Foot  3.32311 11.4865 8.53698
R_Toe0  -1.78853 -0.272788 -17.3235
388
root  -9.7234 39.5854 -13.9065 93.3243 1.79918 -87.8196
Spine  -4.66935 23.7384 -7.71553
Spine1  -5.30381 -1.36177 -40.1542
Neck  3.97569e-016 0 -2.38542e-015
Head  -14.8336 -17.1101 51.237
R_Clavicle  1.79263 15.598 6.31076
R_UpperArm  83.3589 70.001 46.7221
R_Forearm  42.275 11.137 -9.43384
R_Hand  -1.17395 11.9157 -20.4117
L_Clavicle  -7.73989 -17.7189 27.9935
L_UpperArm  -95.5671 -66.918 67.1299
L_Forearm  35.0803 4.07416 5.94778
L_Hand  5.77292 -18.7595 -46.1953
L_Thigh  -8.55149 3.88695 -43.2562
L_Calf  -19.4908 2.43196 -18.5004
L_Foot  4.97285 9.47363 9.12307
L_Toe0  0.505295 0.0372719 -6.13591
R_Thigh  -24.7382 -18.545 58.7144
R_Calf  9.35423 1.74308 5.36625
R_Foot  3.50262 11.9638 9.87715
R_Toe0  -1.78853 -0.272788 -17.3235
389
root  -9.70857 39.5595 -12.7396 67.238 -0.804959 -86.4023
Spine  -4.56947 23.5102 -6.11409
Spine1  -4.96255 -2.98217 -43.6273
Neck  3.97569e-016 0 -2.38542e-015
Head  -14.2735 -18.3782 49.4441
R_Clavicle  1.63051 15.3221 6.03879
R_UpperArm  93.6014 69.7749 57.5793
R_Forearm  38.1479 12.2206 -10.3878
R_Hand  -1.27985 10.82 -21.0587
L_Clavicle  -6.55401 -15.9228 25.1643
L_UpperArm  -101.397 -68.3695 73.4022
L_Forearm  36.8602 5.05505 7.38364
L_Hand  6.92828 -20.7389 -47.7524
L_Thigh  -8.70023 5.01873 -43.7863
L_Calf  -20.1485 1.97 -14.9989
L_Foot  4.5081 9.15042 7.89802
L_Toe0  0.505296 0.0372932 -6.13591
R_Thigh  -22.9222 -18.0148 60.0787
R_Calf  8.97593 1.64967 5.07497
R_Foot  3.46439 11.8681 10.353
R_Toe0  -1.78853 -0.272788 -17.3235
390
root  -9.23358 39.5327 -11.7471 41.8667 -2.42397 -83.2081
Spine  -5.16883 21.4315 -5.79573
Spine1  -5.8057 -2.13967 -46.5655
Neck  3.97569e-016 0 -2.38542e-015
Head  -12.4712 -19.9833 46.9788
R_Clavicle  0.424798 19.3292 2.05711
R_UpperArm  105.783 63.1448 68.9206
R_Forearm  35.1543 13.2994 -11.3484
R_Hand  -1.64596 11.051 -23.4386
L_Clavicle  -7.93224 -21.9859 25.9685
L_UpperArm  -90.355 -62.7109 60.0041
L_Forearm  40.0588 1.0144 5.87
L_Hand  7.79349 -23.1367 -46.383
L_Thigh  -8.68021 5.97206 -44.3404
L_Calf  -20.1127 1.39278 -10.6984
L_Foot  4.16698 10.2562 5.6304
L_Toe0  0.505297 0.0373138 -6.13591
R_Thigh  -21.8185 -17.3249 61.2321
R_Calf  9.18513 1.68272 5.1792
R_Foot  3.46797 11.8745 9.71498
R_Toe0  -1.78853 -0.272788 -17.3235
391
root  -8.4373 39.4677 -11.1117 17.6744 -2.37881 -79.0837
Spine  -6.6262 18.3435 -7.47491
Spine1  -7.98983 0.741977 -47.9079
Neck  3.97569e-016 0 -2.38542e-015
Head  -9.53072 -21.5466 44.1073
R_Clavicle  0.880138 23.9276 3.33564
R_UpperArm  109.703 57.9411 67.6061
R_Forearm  28.3433 15.0814 -12.9612
R_Hand  -2.25308 11.0838 -26.8472
L_Clavicle  -8.18098 -28.9734 23.0934
L_UpperArm  -86.3992 -52.6044 56.6571
L_Forearm  42.442 -4.2856 2.16368
L_Hand  8.18965 -24.7879 -44.638
L_Thigh  -8.18313 6.73615 -44.7024
L_Calf  -18.8977 0.691085 -5.53694
L_Foot  4.14236 12.5993 3.41062
L_Toe0  0.505298 0.0373338 -6.13591
R_Thigh  -21.8535 -16.8773 61.2663
R_Calf  9.24219 1.80819 5.57389
R_Foot  3.55862 12.1026 9.30312
R_Toe0  -1.78853 -0.272788 -17.3235
392
root  -7.51657 39.4098 -10.9454 -4.96777 -0.294749 -75.1787
Spine  -8.47337 15.4146 -11.03
Spine1  -10.4108 3.8697 -47.4127
Neck  3.97569e-016 0 -2.38542e-015
Head  -6.57493 -22.8342 41.1615
R_Clavicle  1.55411 26.3324 4.90077
R_UpperArm  106.804 50.5236 60.0678
R_Forearm  6.04205 21.5434 -19.1732
R_Hand  -3.55561 12.1849 -35.9459
L_Clavicle  -7.72795 -26.5184 23.0615
L_UpperArm  -89.497 -54.6837 58.6026
L_Forearm  42.6807 -4.43379 2.52426
L_Hand  8.18761 -23.6588 -47.1689
L_Thigh  -7.46138 7.65168 -44.4759
L_Calf  -16.6547 -0.0378589 -0.223863
L_Foot  3.88695 14.8127 0.854542
L_Toe0  0.505299 0.0373532 -6.1359
R_Thigh  -23.0887 -17.2541 59.6692
R_Calf  9.55721 2.1112 6.51854
R_Foot  3.53252 12.036 9.21842
R_Toe0  -1.78853 -0.272788 -17.3235
393
root  -6.70666 39.3873 -11.2048 -26.0316 3.58208 -72.9766
Spine  -9.9211 12.9056 -15.0969
Spine1  -12.1123 6.19037 -45.9448
Neck  3.97569e-016 0 -2.38542e-015
Head  -4.53784 -23.665 38.4619
R_Clavicle  2.89172 29.9808 7.7571
R_UpperArm  102.103 47.027 50.321
R_Forearm  -19.3327 23.2178 -20.9064
R_Hand  -9.92038 23.1032 -53.2793
L_Clavicle  -8.24356 -22.2186 26.6766
L_UpperArm  -91.2386 -61.6431 56.7474
L_Forearm  42.304 -2.37512 4.82679
L_Hand  7.71716 -21.3012 -50.891
L_Thigh  -7.17164 8.7004 -43.8544
L_Calf  -14.0989 -0.832131 5.56267
L_Foot  3.26064 16.4728 -2.15837
L_Toe0  0.5053 0.0373721 -6.1359
R_Thigh  -25.6132 -18.9716 56.623
R_Calf  10.2067 2.58311 7.99146
R_Foot  3.54111 12.0584 8.92772
R_Toe0  -1.78853 -0.272788 -17.3235
394
root  -6.19838 39.3757 -11.7655 -45.5532 7.75945 -73.2771
Spine  -10.6451 10.0591 -17.77
Spine1  -13.5557 8.51663 -45.0822
Neck  3.97569e-016 0 -2.38542e-015
Head  -3.01119 -23.618 36.2814
R_Clavicle  6.21067 32.9551 14.5409
R_UpperArm  104.453 50.8399 42.0763
R_Forearm  -19.8867 19.2477 -16.8923
R_Hand  -16.0613 27.0963 -68.1657
L_Clavicle  -9.23334 -22.4129 29.4617
L_UpperArm  -87.2321 -63.5944 51.2733
L_Forearm  41.1845 -1.33338 5.57608
L_Hand  8.03114 -20.9869 -53.7029
L_Thigh  -7.76342 10.127 -42.944
L_Calf  -12.135 -1.73577 12.2448
L_Foot  2.98038 18.252 -4.05172
L_Toe0  0.505301 0.0373903 -6.1359
R_Thigh  -28.7778 -22.612 52.3643
R_Calf  10.9073 3.13491 9.72449
R_Foot  3.65489 12.3543 8.42565
R_Toe0  -1.78853 -0.272788 -17.3235
395
root  -6.16686 39.3516 -12.5433 -63.6986 10.8655 -75.2024
Spine  -10.8813 6.6398 -18.9635
Spine1  -15.0902 11.0829 -45.0496
Neck  3.97569e-016 0 -2.38542e-015
Head  -2.04244 -21.9867 34.5834
R_Clavicle  10.5117 37.512 22.1148
R_UpperArm  109.68 53.1026 36.4112
R_Forearm  -15.5822 13.9028 -11.8962
R_Hand  -18.0454 23.4414 -79.1781
L_Clavicle  -8.11552 -21.7817 26.5676
L_UpperArm  -87.877 -65.3822 52.9041
L_Forearm  37.0981 0.590847 6.90869
L_Hand  9.06467 -21.475 -57.9905
L_Thigh  -9.16115 12.8778 -40.7434
L_Calf  -10.8369 -2.56117 18.532
L_Foot  2.75864 19.8411 -5.53945
L_Toe0  0.505301 0.037408 -6.1359
R_Thigh  -30.9926 -27.8642 47.3543
R_Calf  11.7429 3.52094 10.94
R_Foot  3.60782 12.233 7.85949
R_Toe0  -1.78853 -0.272788 -17.3235
396
root  -6.7554 39.3299 -13.2447 -80.5424 12.6292 -77.5059
Spine  -10.9672 3.52816 -19.4221
Spine1  -16.2088 12.7383 -44.9338
Neck  3.97569e-016 0 -2.38542e-015
Head  -1.97427 -18.633 32.8212
R_Clavicle  10.446 33.2988 23.3768
R_UpperArm  118.205 64.0557 43.3666
R_Forearm  -12.7572 5.03029 -4.54491
R_Hand  -16.9574 18.7678 -84.3512
L_Clavicle  -7.35634 -21.9107 24.2633
L_UpperArm  -85.6279 -68.001 48.6113
L_Forearm  31.4912 2.16938 10.0041
L_Hand  9.86403 -21.3257 -62.6243
L_Thigh  -10.45 17.5539 -36.5643
L_Calf  -10.8221 -3.14541 23.1233
L_Foot  2.12555 20.7936 -7.72804
L_Toe0  0.505302 0.0374251 -6.1359
R_Thigh  -31.3324 -33.7642 41.9957
R_Calf  12.3982 3.42608 10.6271
R_Foot  3.43525 11.7729 7.39982
R_Toe0  -1.78853 -0.272788 -17.3235
397
root  -7.78985 39.2891 -13.4871 -95.577 13.0546 -79.5614
Spine  -11.5 0.245253 -18.2594
Spine1  -17.7185 14.1027 -44.9946
Neck  3.97569e-016 0 -2.38542e-015
Head  -1.38574 -14.1676 30.3379
R_Clavicle  13.2905 38.1501 27.1992
R_UpperArm  118.813 58.6912 43.5881
R_Forearm  -5.91278 3.3679 0.0493539
R_Hand  -16.9335 16.5337 -88.6772
L_Clavicle  -7.00075 -26.918 20.9108
L_UpperArm  -79.1869 -65.5238 38.5687
L_Forearm  25.7593 0.376406 12.281
L_Hand  10.6877 -21.9998 -64.5636
L_Thigh  -11.3546 24.0975 -30.7071
L_Calf  -13.0767 -3.56058 26.4444
L_Foot  1.74388 21.5096 -9.0732
L_Toe0  0.505303 0.0374416 -6.1359
R_Thigh  -29.8933 -40.3166 35.4528
R_Calf  12.3555 2.87773 8.8837
R_Foot  3.22569 11.2055 7.22689
R_Toe0  -1.78853 -0.272788 -17.3235
398
root  -9.04694 38.9666 -13.2429 -108.407 12.3601 -81.2179
Spine  -13.0982 -5.41853 -15.2906
Spine1  -21.2214 17.2154 -45.4881
Neck  3.97569e-016 0 -2.38542e-015
Head  0.75172 -9.11904 27.5794
R_Clavicle  18.1729 42.801 34.0619
R_UpperArm  100.041 45.3134 42.3937
R_Forearm  16.5035 10.5708 5.3909
R_Hand  -21.4996 20.0437 -97.6663
L_Clavicle  -4.79802 -25.6266 15.3808
L_UpperArm  -72.8128 -69.8333 20.7807
L_Forearm  25.4574 1.3736 15.2884
L_Hand  9.23836 -19.9384 -64.0955
L_Thigh  -12.2978 31.9381 -22.5799
L_Calf  -16.2396 -3.92497 29.3804
L_Foot  1.46643 21.0047 -9.60122
L_Toe0  0.505304 0.0374574 -6.1359
R_Thigh  -26.1157 -47.1894 25.7619
R_Calf  12.2827 2.17667 6.6673
R_Foot  2.66785 9.69627 7.29768
R_Toe0  -1.78853 -0.272788 -17.3235
399
root  -10.3603 38.1552 -12.5117 -119.637 11.4343 -82.424
Spine  -15.2412 -13.2962 -12.8144
Spine1  -25.8477 22.1907 -45.1834
Neck  3.97569e-016 0 -2.38542e-015
Head  2.59777 -4.61863 25.93
R_Clavicle  18.3508 39.9115 35.7734
R_UpperArm  86.1225 43.5734 43.722
R_Forearm  33.7533 8.08817 2.51538
R_Hand  -28.2053 18.5832 -115.095
L_Clavicle  -3.76778 -16.6183 15.0569
L_UpperArm  -35.0771 -74.7889 -41.344
L_Forearm  33.4898 9.62716 14.7454
L_Hand  7.50698 -17.3916 -63.2974
L_Thigh  -11.1422 39.6565 -10.9837
L_Calf  -19.681 -4.35842 33.2086
L_Foot  1.07817 19.6436 -10.0736
L_Toe0  0.505304 0.0374728 -6.13589
R_Thigh  -18.999 -52.0125 12.191
R_Calf  13.0498 1.52173 4.60542
R_Foot  1.91254 7.62673 7.18288
R_Toe0  -1.78853 -0.272788 -17.3235
400
root  -11.3158 37.1978 -11.5288 -130.521 11.1258 -83.4691
Spine  -16.0063 -20.4327 -12.8472
Spine1  -29.0749 27.5982 -44.0386
Neck  3.97569e-016 0 -2.38542e-015
Head  2.38286 -2.47186 25.6907
R_Clavicle  14.3059 34.3343 30.8204
R_UpperArm  76.9059 50.6629 37.9928
R_Forearm  39.4447 5.0288 1.56249
R_Hand  -29.4763 15.4854 -124.979
L_Clavicle  -3.36725 -10.007 16.0383
L_UpperArm  -26.7032 -70.5576 -49.3728
L_Forearm  20.9807 9.17027 10.3684
L_Hand  11.8499 -23.4349 -66.433
L_Thigh  -6.75866 45.4752 2.92356
L_Calf  -22.686 -4.47473 39.3792
L_Foot  1.77288 20.1545 -8.4102
L_Toe0  0.505305 0.0374876 -6.13589
R_Thigh  -9.88621 -53.4184 -3.01432
R_Calf  13.1773 1.31638 3.95212
R_Foot  1.4752 6.31845 6.50742
R_Toe0  -1.78853 -0.272788 -17.3235
401
root  -11.8002 36.4914 -10.8799 -141.969 10.8322 -84.7325
Spine  -13.9082 -24.223 -15.1294
Spine1  -29.4886 31.5333 -43.451
Neck  3.97569e-016 0 -2.38542e-015
Head  0.696283 -2.1499 25.5926
R_Clavicle  10.2421 28.8769 24.6466
R_UpperArm  71.445 54.2819 27.2449
R_Forearm  47.4913 -0.288016 6.19476
R_Hand  -18.4525 7.11952 -122.853
L_Clavicle  -2.32324 -5.34062 13.2673
L_UpperArm  -46.333 -63.6798 -26.285
L_Forearm  1.45774 6.07614 6.74894
L_Hand  17.6314 -27.1189 -76.3887
L_Thigh  -2.92308 48.6837 16.1168
L_Calf  -19.7845 -3.55722 46.4543
L_Foot  3.20074 20.5086 -4.67445
L_Toe0  0.505306 0.0375019 -6.13589
R_Thigh  -1.96723 -52.8053 -17.1953
R_Calf  12.2475 2.03393 6.15801
R_Foot  1.01724 4.78916 5.33379
R_Toe0  -1.78853 -0.272788 -17.3235
